<svg width="391" height="247" viewBox="0 0 391 247" fill="none" xmlns="http://www.w3.org/2000/svg">
<path d="M66.8454 164.056C46.0225 164.056 29.6427 158.441 17.7061 147.21C5.90202 135.85 0 119.657 0 98.6332C0 84.3995 2.71891 72.1247 8.15673 61.8085C13.5945 51.4924 21.4197 43.6574 31.6322 38.3034C41.8447 32.8189 53.9803 30.0767 68.039 30.0767C74.5379 30.0767 79.8431 30.599 83.9546 31.6437C88.1987 32.5578 92.3102 33.7983 96.2891 35.3653C99.3396 36.6711 101.661 37.3241 103.252 37.3241C105.64 37.3241 107.297 36.3447 108.226 34.3859L109.022 32.4272H114.99L116.383 69.6436H109.817C107.961 60.1109 103.849 52.3412 97.4828 46.3343C91.1166 40.1969 82.8935 37.1282 72.8137 37.1282C57.296 37.1282 46.6856 43.3962 40.9826 55.9323C35.2795 68.3377 32.428 82.1796 32.428 97.4579C32.428 115.087 35.81 129.451 42.5741 140.551C49.4709 151.52 59.5507 157.004 72.8137 157.004C78.5168 157.004 84.2862 155.633 90.1219 152.891V120.767C90.1219 115.936 89.3924 112.867 87.9335 111.561C86.4745 110.125 83.4904 109.406 78.981 109.406H75.7979V103.138H131.9V109.406H128.12C125.07 109.406 122.881 110.255 121.555 111.953C120.361 113.52 119.765 116.458 119.765 120.767V161.705H113.796C113 160.138 112.072 159.028 111.011 158.375C109.95 157.592 108.425 157.2 106.435 157.2C105.242 157.2 102.722 157.788 98.8754 158.963C93.8355 160.53 88.9282 161.77 84.1535 162.685C79.5115 163.599 73.7421 164.056 66.8454 164.056Z" fill="#143B13"/>
<path d="M142.006 124.293H148.969C150.03 129.386 152.152 134.544 155.335 139.767C158.651 144.86 162.895 149.104 168.068 152.499C173.24 155.894 179.076 157.592 185.575 157.592C192.604 157.592 198.44 155.764 203.082 152.107C207.857 148.32 210.244 142.836 210.244 135.654C210.244 129.908 208.453 125.207 204.872 121.551C201.291 117.894 195.787 114.695 188.36 111.953L178.214 108.427C166.808 104.248 158.12 99.1555 152.152 93.1486C146.316 87.0112 143.399 78.915 143.399 68.8601C143.399 61.1556 145.189 54.3653 148.77 48.489C152.484 42.6127 157.656 38.1076 164.288 34.9736C170.919 31.709 178.612 30.0767 187.365 30.0767C191.079 30.0767 194.129 30.3378 196.517 30.8602C199.037 31.3825 202.22 32.2313 206.066 33.4066C209.382 34.7124 212.034 35.3653 214.024 35.3653C215.483 35.3653 216.544 35.1041 217.207 34.5818C218.003 33.9289 218.533 32.9495 218.799 31.6437H224.369L226.358 65.9219H219.594C217.605 56.6505 213.759 49.4031 208.056 44.1797C202.485 38.9564 195.721 36.3447 187.763 36.3447C180.999 36.3447 175.362 38.2382 170.853 42.0251C166.476 45.6814 164.288 50.3825 164.288 56.1281C164.288 60.4374 165.548 64.0937 168.068 67.0972C170.72 69.97 173.572 72.1899 176.622 73.757C179.673 75.1934 183.851 76.9563 189.156 79.0456L202.087 83.7466C211.902 87.403 219.462 92.2999 224.767 98.4373C230.205 104.444 232.924 112.279 232.924 121.942C232.924 130.561 230.934 138.069 226.955 144.468C223.109 150.736 217.605 155.568 210.443 158.963C203.413 162.358 195.323 164.056 186.172 164.056C181.662 164.056 177.683 163.664 174.235 162.88C170.787 162.227 167.206 161.248 163.492 159.942C159.911 158.767 157.391 158.179 155.932 158.179C154.473 158.179 153.213 158.506 152.152 159.159C151.224 159.812 150.561 160.66 150.163 161.705H144.592L142.006 124.293Z" fill="#143B13"/>
<path d="M351.961 126.839C357.929 135.458 362.24 141.465 364.892 144.86C367.545 148.255 370.264 150.867 373.049 152.695C375.834 154.392 379.084 155.241 382.797 155.241V161.705H322.318V155.241H327.491C330.674 155.241 332.265 154.262 332.265 152.303C332.265 150.606 331.204 148.124 329.082 144.86L297.848 99.4167L291.88 105.097V144.272C291.88 147.798 292.145 150.279 292.675 151.715C293.206 153.021 294.4 153.935 296.256 154.458C298.246 154.98 301.562 155.241 306.204 155.241V161.705H247.117V155.241C251.759 155.241 255.009 154.98 256.865 154.458C258.855 153.935 260.115 152.956 260.645 151.52C261.308 150.083 261.64 147.667 261.64 144.272V50.2519C261.64 46.7261 261.308 44.245 260.645 42.8086C260.115 41.2416 258.855 40.1969 256.865 39.6746C255.009 39.1522 251.759 38.8911 247.117 38.8911V32.4272H306.204V38.8911C301.694 38.8911 298.445 39.1522 296.455 39.6746C294.598 40.1969 293.339 41.2416 292.675 42.8086C292.145 44.245 291.88 46.7261 291.88 50.2519V94.9115L338.035 47.7055C339.892 45.6161 340.82 43.788 340.82 42.221C340.82 41.1763 340.422 40.3928 339.626 39.8704C338.83 39.2175 337.637 38.8911 336.045 38.8911H330.077V32.4272H372.651V38.8911C366.948 38.8911 361.775 40.4581 357.133 43.5921C352.491 46.7261 346.125 52.2759 338.035 60.2415L318.538 79.2415L351.961 126.839Z" fill="#143B13"/>
<path d="M15.7288 227.109V237.605H10.9369V209.356H21.4867C24.5676 209.356 27.011 210.178 28.8166 211.82C30.6349 213.463 31.544 215.636 31.544 218.339C31.544 221.107 30.6538 223.261 28.8734 224.8C27.1057 226.339 24.6245 227.109 21.4299 227.109H15.7288ZM15.7288 223.17H21.4867C23.1913 223.17 24.4919 222.763 25.3884 221.948C26.2849 221.12 26.7332 219.93 26.7332 218.378C26.7332 216.852 26.2786 215.636 25.3695 214.731C24.4603 213.812 23.2103 213.34 21.6193 213.314H15.7288V223.17Z" fill="#D9AF66"/>
<path d="M46.0031 237.993C43.0863 237.993 40.7187 237.055 38.9005 235.18C37.0948 233.292 36.192 230.782 36.192 227.652V227.07C36.192 224.975 36.5834 223.106 37.3663 221.463C38.1618 219.807 39.2729 218.52 40.6998 217.602C42.1266 216.684 43.7176 216.224 45.4728 216.224C48.2633 216.224 50.4162 217.136 51.9314 218.96C53.4593 220.784 54.2232 223.364 54.2232 226.701V228.603H40.8324C40.9713 230.336 41.5332 231.707 42.5181 232.716C43.5156 233.725 44.7657 234.229 46.2683 234.229C48.377 234.229 50.0942 233.356 51.42 231.61L53.9012 234.035C53.0805 235.29 51.9819 236.266 50.6056 236.965C49.2419 237.65 47.7077 237.993 46.0031 237.993ZM45.4538 220.008C44.1911 220.008 43.1684 220.461 42.3855 221.366C41.6152 222.271 41.1228 223.532 40.9081 225.149H49.6775V224.8C49.5765 223.222 49.1661 222.032 48.4464 221.23C47.7267 220.415 46.7291 220.008 45.4538 220.008Z" fill="#D9AF66"/>
<path d="M70.4816 220.92C69.8755 220.816 69.2505 220.764 68.6065 220.764C66.4978 220.764 65.0773 221.592 64.345 223.248V237.605H59.7424V216.612H64.1366L64.2502 218.96C65.3614 217.136 66.9019 216.224 68.8717 216.224C69.5283 216.224 70.0713 216.315 70.5006 216.496L70.4816 220.92Z" fill="#D9AF66"/>
<path d="M86.8158 231.901C86.8158 231.06 86.4749 230.42 85.793 229.98C85.1238 229.541 84.0063 229.153 82.4406 228.816C80.8748 228.48 79.568 228.053 78.5199 227.536C76.2218 226.397 75.0728 224.748 75.0728 222.588C75.0728 220.777 75.8178 219.264 77.3077 218.048C78.7977 216.832 80.6918 216.224 82.9899 216.224C85.4395 216.224 87.4156 216.845 88.9182 218.087C90.4334 219.329 91.191 220.939 91.191 222.918H86.5885C86.5885 222.013 86.2602 221.262 85.6036 220.667C84.947 220.06 84.0758 219.756 82.9899 219.756C81.9797 219.756 81.1526 219.995 80.5087 220.473C79.8773 220.952 79.5616 221.592 79.5616 222.394C79.5616 223.119 79.8584 223.681 80.4518 224.082C81.0453 224.483 82.2449 224.891 84.0505 225.304C85.8562 225.705 87.2704 226.191 88.2932 226.76C89.3286 227.316 90.0925 227.988 90.5849 228.777C91.09 229.566 91.3426 230.524 91.3426 231.649C91.3426 233.537 90.5786 235.07 89.0508 236.247C87.5229 237.411 85.5216 237.993 83.0467 237.993C81.3673 237.993 79.871 237.683 78.5578 237.062C77.2446 236.441 76.2218 235.587 75.4895 234.501C74.7571 233.414 74.3909 232.244 74.3909 230.989H78.8609C78.924 232.102 79.3344 232.962 80.092 233.57C80.8496 234.165 81.8534 234.462 83.1035 234.462C84.3157 234.462 85.2374 234.229 85.8688 233.764C86.5001 233.285 86.8158 232.664 86.8158 231.901Z" fill="#D9AF66"/>
<path d="M96.4451 226.915C96.4451 224.858 96.8428 223.009 97.6383 221.366C98.4338 219.71 99.5513 218.443 100.991 217.563C102.43 216.671 104.084 216.224 105.953 216.224C108.718 216.224 110.96 217.136 112.677 218.96C114.407 220.784 115.341 223.203 115.48 226.216L115.499 227.322C115.499 229.392 115.108 231.241 114.325 232.871C113.555 234.501 112.443 235.762 110.991 236.655C109.552 237.547 107.885 237.993 105.991 237.993C103.099 237.993 100.782 237.01 99.0399 235.044C97.31 233.065 96.4451 230.433 96.4451 227.148V226.915ZM101.048 227.322C101.048 229.482 101.483 231.177 102.354 232.406C103.226 233.621 104.438 234.229 105.991 234.229C107.544 234.229 108.75 233.608 109.609 232.367C110.48 231.125 110.916 229.308 110.916 226.915C110.916 224.794 110.467 223.112 109.571 221.87C108.687 220.629 107.481 220.008 105.953 220.008C104.451 220.008 103.257 220.622 102.373 221.851C101.49 223.067 101.048 224.891 101.048 227.322Z" fill="#D9AF66"/>
<path d="M125.602 216.612L125.734 219.038C127.25 217.162 129.238 216.224 131.701 216.224C135.969 216.224 138.14 218.727 138.216 223.733V237.605H133.614V224.005C133.614 222.672 133.33 221.689 132.761 221.055C132.206 220.409 131.29 220.085 130.015 220.085C128.159 220.085 126.776 220.946 125.867 222.666V237.605H121.265V216.612H125.602Z" fill="#D9AF66"/>
<path d="M157.107 237.605C156.905 237.204 156.729 236.551 156.577 235.646C155.112 237.211 153.319 237.993 151.198 237.993C149.14 237.993 147.46 237.392 146.16 236.189C144.859 234.986 144.209 233.499 144.209 231.726C144.209 229.489 145.017 227.775 146.633 226.585C148.262 225.382 150.586 224.781 153.603 224.781H156.425V223.403C156.425 222.317 156.129 221.45 155.535 220.803C154.942 220.144 154.039 219.814 152.827 219.814C151.779 219.814 150.92 220.085 150.251 220.629C149.582 221.159 149.247 221.838 149.247 222.666H144.645C144.645 221.515 145.017 220.441 145.762 219.445C146.507 218.436 147.517 217.647 148.792 217.078C150.08 216.509 151.514 216.224 153.092 216.224C155.491 216.224 157.404 216.845 158.831 218.087C160.258 219.316 160.99 221.049 161.028 223.287V232.755C161.028 234.643 161.287 236.15 161.805 237.275V237.605H157.107ZM152.05 234.21C152.959 234.21 153.812 233.984 154.607 233.531C155.415 233.078 156.021 232.47 156.425 231.707V227.749H153.944C152.24 227.749 150.958 228.053 150.099 228.661C149.241 229.269 148.811 230.129 148.811 231.241C148.811 232.147 149.102 232.871 149.683 233.414C150.276 233.945 151.065 234.21 152.05 234.21Z" fill="#D9AF66"/>
<path d="M172.684 237.605H168.081V207.804H172.684V237.605Z" fill="#D9AF66"/>
<path d="M196.753 237.605H191.98V209.356H196.753V237.605Z" fill="#D9AF66"/>
<path d="M208.409 216.612L208.542 219.038C210.057 217.162 212.046 216.224 214.508 216.224C218.776 216.224 220.948 218.727 221.023 223.733V237.605H216.421V224.005C216.421 222.672 216.137 221.689 215.569 221.055C215.013 220.409 214.098 220.085 212.822 220.085C210.966 220.085 209.584 220.946 208.674 222.666V237.605H204.072V216.612H208.409Z" fill="#D9AF66"/>
<path d="M232.471 216.612V239.468C232.471 241.615 231.947 243.251 230.899 244.376C229.864 245.515 228.342 246.084 226.334 246.084C225.488 246.084 224.674 245.974 223.891 245.754V242.029C224.371 242.145 224.914 242.203 225.52 242.203C227.048 242.203 227.831 241.35 227.869 239.642V216.612H232.471ZM227.471 211.161C227.471 210.436 227.692 209.835 228.134 209.356C228.588 208.878 229.232 208.638 230.066 208.638C230.899 208.638 231.543 208.878 231.998 209.356C232.452 209.835 232.679 210.436 232.679 211.161C232.679 211.872 232.452 212.467 231.998 212.946C231.543 213.411 230.899 213.644 230.066 213.644C229.232 213.644 228.588 213.411 228.134 212.946C227.692 212.467 227.471 211.872 227.471 211.161Z" fill="#D9AF66"/>
<path d="M251.76 235.549C250.409 237.178 248.49 237.993 246.002 237.993C243.78 237.993 242.094 237.327 240.945 235.995C239.809 234.663 239.24 232.735 239.24 230.213V216.612H243.843V230.155C243.843 232.819 244.922 234.152 247.082 234.152C249.317 234.152 250.826 233.33 251.608 231.688V216.612H256.211V237.605H251.874L251.76 235.549Z" fill="#D9AF66"/>
<path d="M273.568 220.92C272.962 220.816 272.337 220.764 271.693 220.764C269.584 220.764 268.164 221.592 267.431 223.248V237.605H262.829V216.612H267.223L267.336 218.96C268.448 217.136 269.988 216.224 271.958 216.224C272.615 216.224 273.158 216.315 273.587 216.496L273.568 220.92Z" fill="#D9AF66"/>
<path d="M285.925 230.853L290.091 216.612H294.997L286.853 240.787C285.603 244.318 283.481 246.084 280.489 246.084C279.819 246.084 279.081 245.967 278.273 245.735V242.087L279.144 242.145C280.306 242.145 281.177 241.925 281.758 241.486C282.351 241.059 282.818 240.334 283.159 239.313L283.822 237.508L276.625 216.612H281.587L285.925 230.853Z" fill="#D9AF66"/>
<path d="M316.434 233.686H328.953V237.605H311.642V209.356H316.434V233.686Z" fill="#D9AF66"/>
<path d="M346.367 237.605C346.165 237.204 345.988 236.551 345.837 235.646C344.372 237.211 342.579 237.993 340.458 237.993C338.4 237.993 336.72 237.392 335.42 236.189C334.119 234.986 333.469 233.499 333.469 231.726C333.469 229.489 334.277 227.775 335.893 226.585C337.522 225.382 339.845 224.781 342.863 224.781H345.685V223.403C345.685 222.317 345.389 221.45 344.795 220.803C344.202 220.144 343.299 219.814 342.087 219.814C341.039 219.814 340.18 220.085 339.511 220.629C338.841 221.159 338.507 221.838 338.507 222.666H333.904C333.904 221.515 334.277 220.441 335.022 219.445C335.767 218.436 336.777 217.647 338.052 217.078C339.34 216.509 340.773 216.224 342.352 216.224C344.751 216.224 346.664 216.845 348.091 218.087C349.518 219.316 350.25 221.049 350.288 223.287V232.755C350.288 234.643 350.547 236.15 351.064 237.275V237.605H346.367ZM341.31 234.21C342.219 234.21 343.071 233.984 343.867 233.531C344.675 233.078 345.281 232.47 345.685 231.707V227.749H343.204C341.499 227.749 340.218 228.053 339.359 228.661C338.501 229.269 338.071 230.129 338.071 231.241C338.071 232.147 338.362 232.871 338.942 233.414C339.536 233.945 340.325 234.21 341.31 234.21Z" fill="#D9AF66"/>
<path d="M375.05 231.106L378.308 216.612H382.797L377.21 237.605H373.422L369.027 223.19L364.709 237.605H360.921L355.315 216.612H359.803L363.118 230.95L367.323 216.612H370.789L375.05 231.106Z" fill="#D9AF66"/>
<rect x="2.73456" y="183.196" width="388.266" height="8.2028" rx="4.1014" fill="#D9AF66"/>
<rect x="3" width="388" height="8" rx="4" fill="#D9AF66"/>
</svg>
