<svg width="139" height="86" viewBox="0 0 139 86" fill="none" xmlns="http://www.w3.org/2000/svg">
<path d="M23.6432 56.9867C16.2781 56.9867 10.4846 55.0007 6.26263 51.0285C2.08754 47.0102 0 41.283 0 33.8468C0 28.8124 0.961677 24.4707 2.88503 20.8219C4.80838 17.1731 7.57614 14.4019 11.1883 12.5082C14.8004 10.5683 19.0928 9.59839 24.0654 9.59839C26.364 9.59839 28.2405 9.78314 29.6947 10.1526C31.1959 10.476 32.6501 10.9147 34.0574 11.469C35.1364 11.9309 35.9573 12.1618 36.5203 12.1618C37.3647 12.1618 37.9511 11.8154 38.2794 11.1226L38.5609 10.4298H40.6719L41.1645 23.5932H38.8424C38.1856 20.2215 36.7314 17.4734 34.4796 15.3487C32.2279 13.1779 29.3194 12.0925 25.7542 12.0925C20.2656 12.0925 16.5127 14.3095 14.4955 18.7435C12.4783 23.1313 11.4698 28.0272 11.4698 33.4311C11.4698 39.6664 12.666 44.747 15.0585 48.673C17.4978 52.5527 21.0631 54.4926 25.7542 54.4926C27.7714 54.4926 29.812 54.0076 31.8761 53.0377V41.6756C31.8761 39.9666 31.6181 38.8812 31.102 38.4194C30.586 37.9113 29.5305 37.6573 27.9355 37.6573H26.8097V35.4403H46.6531V37.6573H45.3161C44.2371 37.6573 43.4631 37.9575 42.994 38.5579C42.5718 39.1122 42.3607 40.1514 42.3607 41.6756V56.1553H40.2497C39.9682 55.6011 39.6399 55.2085 39.2646 54.9776C38.8893 54.7004 38.3498 54.5619 37.6461 54.5619C37.2239 54.5619 36.3326 54.7697 34.9722 55.1854C33.1896 55.7397 31.4539 56.1784 29.7651 56.5018C28.1232 56.8251 26.0826 56.9867 23.6432 56.9867Z" fill="white"/>
<path d="M50.2275 42.9226H52.6903C53.0656 44.7239 53.8162 46.5484 54.942 48.3959C56.1148 50.1972 57.616 51.6983 59.4455 52.8991C61.275 54.1 63.3391 54.7004 65.6377 54.7004C68.124 54.7004 70.1881 54.0538 71.83 52.7606C73.5188 51.4211 74.3632 49.4813 74.3632 46.9409C74.3632 44.9087 73.7299 43.246 72.4633 41.9527C71.1967 40.6595 69.2499 39.5279 66.6229 38.5579L63.0342 37.3109C58.9998 35.8329 55.9272 34.0316 53.8162 31.9069C51.7521 29.7361 50.72 26.8725 50.72 23.3161C50.72 20.591 51.3533 18.1893 52.6199 16.1108C53.9334 14.0324 55.763 12.4389 58.1085 11.3304C60.4541 10.1757 63.1749 9.59839 66.271 9.59839C67.5846 9.59839 68.6635 9.69076 69.5079 9.87551C70.3992 10.0603 71.5251 10.3605 72.8855 10.7762C74.0583 11.238 74.9965 11.469 75.7002 11.469C76.2162 11.469 76.5915 11.3766 76.826 11.1919C77.1075 10.9609 77.2952 10.6145 77.389 10.1526H79.3592L80.0629 22.2768H77.6704C76.9668 18.9975 75.6064 16.4341 73.5892 14.5866C71.6189 12.7391 69.2264 11.8154 66.4118 11.8154C64.0193 11.8154 62.0256 12.4851 60.4306 13.8245C58.8826 15.1178 58.1085 16.7805 58.1085 18.8128C58.1085 20.337 58.5542 21.6302 59.4455 22.6925C60.3837 23.7087 61.3923 24.4938 62.4713 25.0481C63.5502 25.5562 65.0279 26.1797 66.9043 26.9187L71.4782 28.5814C74.9496 29.8747 77.6235 31.6067 79.5 33.7775C81.4233 35.9021 82.385 38.6734 82.385 42.0913C82.385 45.1396 81.6813 47.7954 80.274 50.0586C78.9136 52.2756 76.9668 53.9845 74.4336 55.1854C71.9473 56.3863 69.0857 56.9867 65.8488 56.9867C64.2539 56.9867 62.8465 56.8482 61.6269 56.571C60.4072 56.3401 59.1406 55.9937 57.8271 55.5318C56.5605 55.1161 55.6691 54.9083 55.1531 54.9083C54.6371 54.9083 54.1914 55.0238 53.8162 55.2547C53.4878 55.4856 53.2532 55.7858 53.1125 56.1553H51.1422L50.2275 42.9226Z" fill="white"/>
<path d="M124.488 43.8233C126.599 46.8717 128.124 48.9963 129.062 50.1972C130 51.398 130.962 52.3218 131.947 52.9684C132.932 53.5688 134.082 53.8691 135.395 53.8691V56.1553H114.004V53.8691H115.833C116.959 53.8691 117.522 53.5227 117.522 52.8298C117.522 52.2294 117.147 51.3519 116.396 50.1972L105.349 34.1239L103.238 36.1331V49.9893C103.238 51.2364 103.332 52.1139 103.519 52.622C103.707 53.0839 104.129 53.4072 104.786 53.5919C105.489 53.7767 106.662 53.8691 108.304 53.8691V56.1553H87.4052V53.8691C89.0471 53.8691 90.1964 53.7767 90.8532 53.5919C91.5568 53.4072 92.0025 53.0608 92.1901 52.5527C92.4247 52.0447 92.542 51.1902 92.542 49.9893V16.7344C92.542 15.4873 92.4247 14.6097 92.1901 14.1017C92.0025 13.5474 91.5568 13.1779 90.8532 12.9932C90.1964 12.8084 89.0471 12.716 87.4052 12.716V10.4298H108.304V12.716C106.709 12.716 105.56 12.8084 104.856 12.9932C104.199 13.1779 103.754 13.5474 103.519 14.1017C103.332 14.6097 103.238 15.4873 103.238 16.7344V32.5305L119.563 15.8337C120.22 15.0947 120.548 14.4481 120.548 13.8938C120.548 13.5243 120.407 13.2472 120.126 13.0624C119.844 12.8315 119.422 12.716 118.859 12.716H116.748V10.4298H131.807V12.716C129.789 12.716 127.96 13.2703 126.318 14.3788C124.676 15.4873 122.424 17.4503 119.563 20.2677L112.667 26.988L124.488 43.8233Z" fill="white"/>
<path d="M5.56325 79.2885V83.0011H3.86835V73.0094H7.5998C8.68954 73.0094 9.55374 73.3 10.1924 73.881C10.8355 74.462 11.1571 75.2306 11.1571 76.1867C11.1571 77.1658 10.8422 77.9275 10.2125 78.4719C9.58723 79.0163 8.70964 79.2885 7.57971 79.2885H5.56325ZM5.56325 77.8955H7.5998C8.20273 77.8955 8.66274 77.7514 8.97984 77.4631C9.29694 77.1703 9.45548 76.7495 9.45548 76.2005C9.45548 75.6606 9.2947 75.2306 8.97314 74.9103C8.65158 74.5855 8.20943 74.4185 7.6467 74.4094H5.56325V77.8955Z" fill="white"/>
<path d="M16.2713 83.1384C15.2396 83.1384 14.4022 82.8067 13.7591 82.1433C13.1204 81.4754 12.8011 80.5878 12.8011 79.4807V79.2748C12.8011 78.5337 12.9395 77.8726 13.2164 77.2916C13.4978 76.706 13.8908 76.2508 14.3955 75.926C14.9001 75.6011 15.4629 75.4387 16.0837 75.4387C17.0707 75.4387 17.8322 75.7613 18.3681 76.4063C18.9085 77.0514 19.1787 77.9641 19.1787 79.1444V79.8169H14.4424C14.4915 80.43 14.6902 80.9149 15.0386 81.2718C15.3914 81.6286 15.8336 81.807 16.365 81.807C17.1109 81.807 17.7183 81.4982 18.1872 80.8806L19.0648 81.7384C18.7745 82.1822 18.386 82.5276 17.8992 82.7746C17.4168 83.0171 16.8742 83.1384 16.2713 83.1384ZM16.077 76.7769C15.6304 76.7769 15.2686 76.937 14.9917 77.2573C14.7193 77.5775 14.5451 78.0236 14.4692 78.5954H17.5709V78.4719C17.5352 77.9138 17.39 77.4929 17.1354 77.2092C16.8809 76.921 16.5281 76.7769 16.077 76.7769Z" fill="white"/>
<path d="M24.9293 77.0994C24.7149 77.0628 24.4939 77.0445 24.2661 77.0445C23.5202 77.0445 23.0178 77.3373 22.7588 77.9229V83.0011H21.1309V75.576H22.6851L22.7253 76.4063C23.1183 75.7613 23.6632 75.4387 24.3599 75.4387C24.5921 75.4387 24.7842 75.4708 24.936 75.5348L24.9293 77.0994Z" fill="white"/>
<path d="M30.7067 80.9836C30.7067 80.6862 30.5861 80.4597 30.3449 80.3042C30.1082 80.1486 29.713 80.0114 29.1592 79.8924C28.6054 79.7735 28.1431 79.6225 27.7724 79.4395C26.9596 79.0369 26.5532 78.4536 26.5532 77.6896C26.5532 77.0491 26.8167 76.5138 27.3437 76.0838C27.8707 75.6538 28.5406 75.4387 29.3535 75.4387C30.2199 75.4387 30.9188 75.6583 31.4503 76.0975C31.9862 76.5367 32.2542 77.1063 32.2542 77.8063H30.6263C30.6263 77.486 30.5102 77.2207 30.2779 77.0102C30.0457 76.7952 29.7375 76.6877 29.3535 76.6877C28.9962 76.6877 28.7036 76.7723 28.4759 76.9416C28.2526 77.1109 28.1409 77.3373 28.1409 77.621C28.1409 77.8772 28.2459 78.0762 28.4558 78.218C28.6657 78.3598 29.09 78.5039 29.7286 78.6503C30.3673 78.7922 30.8675 78.9637 31.2292 79.165C31.5955 79.3617 31.8657 79.5996 32.0398 79.8787C32.2185 80.1578 32.3078 80.4963 32.3078 80.8943C32.3078 81.5623 32.0376 82.1044 31.4972 82.5207C30.9568 82.9325 30.2489 83.1384 29.3736 83.1384C28.7796 83.1384 28.2503 83.0286 27.7858 82.809C27.3214 82.5894 26.9596 82.2874 26.7006 81.9031C26.4415 81.5188 26.312 81.1048 26.312 80.661H27.893C27.9154 81.0545 28.0605 81.3587 28.3285 81.5737C28.5964 81.7842 28.9515 81.8894 29.3937 81.8894C29.8224 81.8894 30.1484 81.807 30.3717 81.6423C30.595 81.4731 30.7067 81.2535 30.7067 80.9836Z" fill="white"/>
<path d="M34.1126 79.2199C34.1126 78.4925 34.2533 77.8383 34.5346 77.2573C34.816 76.6717 35.2112 76.2233 35.7204 75.9122C36.2295 75.5966 36.8146 75.4387 37.4756 75.4387C38.4537 75.4387 39.2464 75.7613 39.8538 76.4063C40.4656 77.0514 40.7961 77.9069 40.8453 78.9729L40.852 79.364C40.852 80.096 40.7135 80.7502 40.4366 81.3267C40.1642 81.9031 39.7712 82.3492 39.2576 82.6648C38.7484 82.9805 38.1589 83.1384 37.489 83.1384C36.4662 83.1384 35.6467 82.7907 35.0304 82.0953C34.4185 81.3953 34.1126 80.4643 34.1126 79.3023V79.2199ZM35.7405 79.364C35.7405 80.128 35.8946 80.7274 36.2027 81.162C36.5109 81.592 36.9396 81.807 37.489 81.807C38.0383 81.807 38.4648 81.5874 38.7685 81.1483C39.0767 80.7091 39.2308 80.0663 39.2308 79.2199C39.2308 78.4696 39.0722 77.8749 38.7551 77.4357C38.4425 76.9965 38.016 76.7769 37.4756 76.7769C36.9441 76.7769 36.522 76.9942 36.2094 77.4288C35.8968 77.8589 35.7405 78.5039 35.7405 79.364Z" fill="white"/>
<path d="M44.4253 75.576L44.4722 76.4338C45.0082 75.7704 45.7116 75.4387 46.5825 75.4387C48.092 75.4387 48.8602 76.324 48.887 78.0945V83.0011H47.2591V78.1906C47.2591 77.7193 47.1586 77.3716 46.9576 77.1475C46.7611 76.9187 46.4373 76.8044 45.9862 76.8044C45.3297 76.8044 44.8407 77.1086 44.5191 77.7171V83.0011H42.8912V75.576H44.4253Z" fill="white"/>
<path d="M55.5688 83.0011C55.4973 82.8593 55.4348 82.6282 55.3812 82.308C54.8631 82.8616 54.2289 83.1384 53.4786 83.1384C52.7506 83.1384 52.1567 82.9256 51.6966 82.5001C51.2366 82.0747 51.0066 81.5486 51.0066 80.9218C51.0066 80.1303 51.2925 79.5242 51.8641 79.1033C52.4403 78.6778 53.262 78.4651 54.3294 78.4651H55.3276V77.9778C55.3276 77.5935 55.2227 77.287 55.0127 77.0583C54.8028 76.8249 54.4835 76.7083 54.0548 76.7083C53.6841 76.7083 53.3804 76.8044 53.1437 76.9965C52.907 77.1841 52.7886 77.4243 52.7886 77.7171H51.1607C51.1607 77.3099 51.2925 76.9302 51.556 76.5779C51.8195 76.221 52.1768 75.942 52.6278 75.7407C53.0834 75.5394 53.5903 75.4387 54.1485 75.4387C54.9971 75.4387 55.6737 75.6583 56.1784 76.0975C56.6831 76.5321 56.9421 77.1452 56.9555 77.9366V81.2855C56.9555 81.9534 57.0471 82.4864 57.2302 82.8844V83.0011H55.5688ZM53.7801 81.8002C54.1017 81.8002 54.4031 81.7201 54.6845 81.56C54.9703 81.3999 55.1847 81.1849 55.3276 80.9149V79.515H54.45C53.8471 79.515 53.3938 79.6225 53.0901 79.8375C52.7864 80.0526 52.6345 80.3568 52.6345 80.7502C52.6345 81.0705 52.7373 81.3267 52.9427 81.5188C53.1526 81.7064 53.4317 81.8002 53.7801 81.8002Z" fill="white"/>
<path d="M61.0782 83.0011H59.4503V72.4604H61.0782V83.0011Z" fill="white"/>
<path d="M69.5916 83.0011H67.9034V73.0094H69.5916V83.0011Z" fill="white"/>
<path d="M73.7142 75.576L73.7611 76.4338C74.2971 75.7704 75.0005 75.4387 75.8714 75.4387C77.3809 75.4387 78.1491 76.324 78.1759 78.0945V83.0011H76.548V78.1906C76.548 77.7193 76.4475 77.3716 76.2465 77.1475C76.05 76.9187 75.7262 76.8044 75.2752 76.8044C74.6186 76.8044 74.1296 77.1086 73.808 77.7171V83.0011H72.1801V75.576H73.7142Z" fill="white"/>
<path d="M82.2249 75.576V83.6599C82.2249 84.4193 82.0396 84.9981 81.6689 85.3961C81.3027 85.7987 80.7645 86 80.0544 86C79.7551 86 79.4671 85.9611 79.1902 85.8833V84.5657C79.3599 84.6069 79.5519 84.6275 79.7663 84.6275C80.3067 84.6275 80.5836 84.3255 80.597 83.7217V75.576H82.2249ZM80.4563 73.6476C80.4563 73.3914 80.5345 73.1787 80.6908 73.0094C80.8516 72.8402 81.0793 72.7555 81.3741 72.7555C81.6689 72.7555 81.8966 72.8402 82.0574 73.0094C82.2182 73.1787 82.2986 73.3914 82.2986 73.6476C82.2986 73.8993 82.2182 74.1097 82.0574 74.279C81.8966 74.4437 81.6689 74.526 81.3741 74.526C81.0793 74.526 80.8516 74.4437 80.6908 74.279C80.5345 74.1097 80.4563 73.8993 80.4563 73.6476Z" fill="white"/>
<path d="M89.0474 82.2737C88.5695 82.8501 87.8906 83.1384 87.0108 83.1384C86.2248 83.1384 85.6286 82.9027 85.2221 82.4315C84.8202 81.9603 84.6192 81.2786 84.6192 80.3865V75.576H86.2471V80.3659C86.2471 81.3084 86.629 81.7796 87.3927 81.7796C88.1832 81.7796 88.7169 81.4891 88.9938 80.9081V75.576H90.6217V83.0011H89.0876L89.0474 82.2737Z" fill="white"/>
<path d="M96.7608 77.0994C96.5465 77.0628 96.3254 77.0445 96.0976 77.0445C95.3518 77.0445 94.8493 77.3373 94.5903 77.9229V83.0011H92.9624V75.576H94.5166L94.5568 76.4063C94.9498 75.7613 95.4947 75.4387 96.1914 75.4387C96.4236 75.4387 96.6157 75.4708 96.7675 75.5348L96.7608 77.0994Z" fill="white"/>
<path d="M101.131 80.613L102.605 75.576H104.34L101.46 84.1265C101.018 85.3755 100.267 86 99.2087 86C98.972 86 98.7108 85.9588 98.4249 85.8765V84.5863L98.7331 84.6069C99.144 84.6069 99.4521 84.5291 99.6576 84.3736C99.8675 84.2226 100.033 83.9664 100.153 83.605L100.388 82.9668L97.8421 75.576H99.5973L101.131 80.613Z" fill="white"/>
<path d="M111.922 81.6149H116.351V83.0011H110.228V73.0094H111.922V81.6149Z" fill="white"/>
<path d="M122.51 83.0011C122.438 82.8593 122.376 82.6282 122.322 82.308C121.804 82.8616 121.17 83.1384 120.42 83.1384C119.692 83.1384 119.098 82.9256 118.638 82.5001C118.178 82.0747 117.948 81.5486 117.948 80.9218C117.948 80.1303 118.234 79.5242 118.805 79.1033C119.381 78.6778 120.203 78.4651 121.271 78.4651H122.269V77.9778C122.269 77.5935 122.164 77.287 121.954 77.0583C121.744 76.8249 121.425 76.7083 120.996 76.7083C120.625 76.7083 120.321 76.8044 120.085 76.9965C119.848 77.1841 119.73 77.4243 119.73 77.7171H118.102C118.102 77.3099 118.234 76.9302 118.497 76.5779C118.761 76.221 119.118 75.942 119.569 75.7407C120.024 75.5394 120.531 75.4387 121.09 75.4387C121.938 75.4387 122.615 75.6583 123.12 76.0975C123.624 76.5321 123.883 77.1452 123.897 77.9366V81.2855C123.897 81.9534 123.988 82.4864 124.171 82.8844V83.0011H122.51ZM120.721 81.8002C121.043 81.8002 121.344 81.7201 121.626 81.56C121.911 81.3999 122.126 81.1849 122.269 80.9149V79.515H121.391C120.788 79.515 120.335 79.6225 120.031 79.8375C119.728 80.0526 119.576 80.3568 119.576 80.7502C119.576 81.0705 119.678 81.3267 119.884 81.5188C120.094 81.7064 120.373 81.8002 120.721 81.8002Z" fill="white"/>
<path d="M132.655 80.7022L133.807 75.576H135.395L133.419 83.0011H132.079L130.525 77.9023L128.997 83.0011H127.658L125.675 75.576H127.262L128.435 80.6473L129.922 75.576H131.148L132.655 80.7022Z" fill="white"/>
<rect x="0.967224" y="63.7566" width="137.329" height="2.90133" rx="1.45066" fill="white"/>
<rect x="1.03979" width="137.257" height="3.11947" rx="1.55974" fill="white"/>
</svg>
