<svg width="64" height="64" viewBox="0 0 64 64" fill="none" xmlns="http://www.w3.org/2000/svg">
<path d="M36.3818 30.3229C36.5706 30.6816 36.9461 30.8888 37.3343 30.8888C37.4964 30.8888 37.6628 30.8525 37.8176 30.7758C37.8804 30.7447 44.1589 27.6456 47.2554 26.6952C47.8165 26.5221 48.1279 25.9395 47.9497 25.3944C47.7726 24.8492 47.1775 24.5455 46.6111 24.7176C43.3493 25.7199 37.1136 28.7983 36.8491 28.9289C36.3242 29.1879 36.1152 29.812 36.3818 30.3229Z" fill="#D9AF66"/>
<path d="M37.3343 18.4512C37.4964 18.4512 37.6628 18.4149 37.8176 18.3382C37.8804 18.3071 44.1589 15.208 47.2554 14.2575C47.8165 14.0845 48.1279 13.5019 47.9497 12.9568C47.7726 12.4115 47.1775 12.1079 46.6111 12.28C43.3493 13.2823 37.1136 16.3607 36.8491 16.4912C36.3243 16.7503 36.1152 17.3743 36.3818 17.8853C36.5706 18.2438 36.9461 18.4512 37.3343 18.4512Z" fill="#D9AF66"/>
<path d="M62.9337 16.3781C62.3439 16.3781 61.8671 16.8425 61.8671 17.4146V57.8375C61.8671 59.5519 60.4314 60.947 58.6671 60.947H33.0673V58.5621C34.6226 58.0334 38.6737 56.8011 42.6673 56.8011C51.9589 56.8011 58.2683 58.8005 58.3311 58.8211C58.6521 58.9247 59.0106 58.873 59.2911 58.678C59.5695 58.4832 59.7338 58.1702 59.7338 57.8374V12.2322C59.7338 11.7461 59.3871 11.3252 58.8985 11.2205C58.8985 11.2205 58.0623 11.0392 56.6329 10.7841C56.0558 10.6805 55.498 11.0536 55.3913 11.6154C55.2847 12.1792 55.6675 12.7193 56.2468 12.8229C56.7919 12.9203 57.2484 13.0063 57.6004 13.0748V56.46C55.1833 55.8443 49.816 54.7281 42.6671 54.7281C38.0197 54.7281 33.4545 56.2113 32.0421 56.714C30.7866 56.1751 26.9915 54.7281 22.4006 54.7281C15.0534 54.7281 9.00116 55.9055 6.40068 56.5036V13.0343C8.53079 12.5254 14.822 11.1956 22.4006 11.1956C26.2896 11.1956 29.625 12.372 30.9339 12.9038V53.6916C30.9339 54.0648 31.1407 54.4099 31.4746 54.5934C31.8085 54.7779 32.2202 54.7726 32.5498 54.5799C32.6555 54.5188 43.2239 48.3848 52.6041 45.3469C53.0403 45.2049 53.3337 44.81 53.3337 44.3632V1.86726C53.3337 1.52729 53.1619 1.20905 52.8739 1.01532C52.5881 0.821463 52.2212 0.776886 51.8916 0.896163C43.3573 4.00659 34.7217 9.22842 34.6352 9.28028C34.136 9.58394 33.9835 10.2234 34.296 10.7086C34.6075 11.1937 35.2656 11.3419 35.7658 11.0382C35.8447 10.9895 43.3573 6.44764 51.2003 3.38276V43.6212C43.9193 46.0798 36.3172 50.0941 33.0671 51.8913V12.2322C33.0671 11.8394 32.8388 11.4807 32.4772 11.3046C32.2937 11.2165 27.9226 9.12275 22.4006 9.12275C12.7623 9.12275 5.35219 11.1491 5.04069 11.2361C4.58307 11.3625 4.26732 11.7699 4.26732 12.2322V57.8376C4.26732 58.1621 4.42519 58.4689 4.69082 58.6648C4.87857 58.8027 5.10469 58.8742 5.33406 58.8742C5.43219 58.8742 5.53031 58.8607 5.62631 58.8338C5.69993 58.8141 13.0759 56.8012 22.4006 56.8012C26.3003 56.8012 29.6325 57.9807 30.9339 58.5103V60.9471H5.33406C3.56983 60.9471 2.13409 59.552 2.13409 57.8376V17.4147C2.13409 16.8426 1.65622 16.3782 1.06747 16.3782C0.478726 16.3782 0.000854492 16.8426 0.000854492 17.4147V57.8376C0.000854492 60.6952 2.39334 63.0201 5.33419 63.0201H58.6671C61.6079 63.0201 64.0005 60.6953 64.0005 57.8376V17.4147C64.0003 16.8425 63.5236 16.3781 62.9337 16.3781Z" fill="#D9AF66"/>
<path d="M36.3818 24.104C36.5706 24.4627 36.9461 24.6699 37.3343 24.6699C37.4964 24.6699 37.6628 24.6336 37.8176 24.557C37.8804 24.5259 44.1589 21.4267 47.2554 20.4763C47.8165 20.3032 48.1279 19.7207 47.9497 19.1755C47.7726 18.6303 47.1775 18.3266 46.6111 18.4987C43.3493 19.5011 37.1136 22.5794 36.8491 22.71C36.3242 22.9691 36.1152 23.5932 36.3818 24.104Z" fill="#D9AF66"/>
<path d="M36.3818 36.5419C36.5706 36.9006 36.9461 37.1078 37.3343 37.1078C37.4964 37.1078 37.6628 37.0715 37.8176 36.9948C37.8804 36.9637 44.1589 33.8646 47.2554 32.9142C47.8165 32.7411 48.1279 32.1585 47.9497 31.6134C47.7726 31.0682 47.1775 30.7645 46.6111 30.9366C43.3493 31.9389 37.1136 35.0173 36.8491 35.1479C36.3242 35.4069 36.1152 36.031 36.3818 36.5419Z" fill="#D9AF66"/>
<path d="M25.8433 20.066C19.2567 18.5641 11.7719 20.4776 11.4573 20.5594C10.8888 20.7076 10.5507 21.2756 10.7032 21.8291C10.8312 22.2924 11.262 22.5971 11.7325 22.5971C11.8243 22.5971 11.917 22.5857 12.0099 22.5619C12.0814 22.5422 19.2877 20.7003 25.3571 22.084C25.9277 22.2136 26.5048 21.8684 26.6392 21.3108C26.7734 20.7543 26.4172 20.1966 25.8433 20.066Z" fill="#D9AF66"/>
<path d="M25.8433 26.2849C19.2567 24.7841 11.7719 26.6964 11.4573 26.7783C10.8888 26.9265 10.5507 27.4946 10.7032 28.048C10.8312 28.5112 11.262 28.816 11.7325 28.816C11.8243 28.816 11.917 28.8046 12.0099 28.7808C12.0814 28.7611 19.2877 26.9192 25.3571 28.3029C25.9277 28.4325 26.5048 28.0873 26.6392 27.5297C26.7734 26.9731 26.4172 26.4155 25.8433 26.2849Z" fill="#D9AF66"/>
<path d="M36.3818 42.7608C36.5706 43.1194 36.9461 43.3267 37.3343 43.3267C37.4964 43.3267 37.6628 43.2903 37.8176 43.2137C37.8804 43.1826 44.1589 40.0835 47.2554 39.133C47.8165 38.9599 48.1279 38.3774 47.9497 37.8323C47.7726 37.2871 47.1775 36.9834 46.6111 37.1555C43.3493 38.1578 37.1136 41.2362 36.8491 41.3667C36.3242 41.6258 36.1152 42.2499 36.3818 42.7608Z" fill="#D9AF66"/>
<path d="M25.8433 32.5039C19.2567 31.0031 11.7719 32.9143 11.4573 32.9972C10.8888 33.1454 10.5507 33.7135 10.7032 34.2669C10.8312 34.7302 11.262 35.036 11.7325 35.036C11.8243 35.036 11.917 35.0236 12.0099 34.9997C12.0814 34.98 19.2877 33.1381 25.3571 34.5218C25.9277 34.6515 26.5048 34.3063 26.6392 33.7486C26.7734 33.1921 26.4172 32.6344 25.8433 32.5039Z" fill="#D9AF66"/>
<path d="M25.8433 44.9417C19.2567 43.4398 11.7719 45.3532 11.4573 45.435C10.8888 45.5832 10.5507 46.1513 10.7032 46.7047C10.8312 47.168 11.262 47.4738 11.7325 47.4738C11.8243 47.4738 11.917 47.4614 12.0099 47.4375C12.0814 47.4178 19.2877 45.5759 25.3571 46.9597C25.9277 47.0882 26.5048 46.7441 26.6392 46.1864C26.7734 45.6299 26.4172 45.0722 25.8433 44.9417Z" fill="#D9AF66"/>
<path d="M25.8433 38.7227C19.2567 37.2208 11.7719 39.1331 11.4573 39.2161C10.8888 39.3643 10.5507 39.9324 10.7032 40.4857C10.8312 40.949 11.262 41.2548 11.7325 41.2548C11.8243 41.2548 11.917 41.2425 12.0099 41.2185C12.0814 41.1989 19.2877 39.357 25.3571 40.7407C25.9277 40.8703 26.5048 40.5251 26.6392 39.9675C26.7734 39.4109 26.4172 38.8533 25.8433 38.7227Z" fill="#D9AF66"/>
</svg>
