<svg width="36" height="59" viewBox="0 0 36 59" fill="none" xmlns="http://www.w3.org/2000/svg">
<path d="M35.5464 35.0078L20.0099 9.10679C20.0005 9.09119 19.9898 9.07707 19.9799 9.06204L21.8872 3.48672C22.124 2.79426 22.0032 2.02767 21.564 1.43587C21.1248 0.844078 20.414 0.490845 19.6632 0.490845H7.91213C7.16119 0.490845 6.45057 0.844192 6.01135 1.43587C5.57213 2.02756 5.45119 2.79438 5.68815 3.48672L7.88131 9.8973L0.318381 45.4487C0.238459 45.824 0.358342 46.2132 0.637248 46.4844L12.9589 58.46C13.1787 58.6736 13.4768 58.7937 13.7877 58.7937C14.0986 58.7937 14.3966 58.6736 14.6164 58.46L26.9382 46.4844C27.2171 46.2133 27.337 45.8241 27.2571 45.4487L20.7508 14.8644L33.2376 35.6813L28.5854 47.3753C28.352 47.9619 28.6522 48.6212 29.256 48.848C29.3949 48.9002 29.5377 48.925 29.6782 48.925C30.1482 48.925 30.5919 48.6481 30.7715 48.1965L35.627 35.9919C35.7554 35.669 35.7258 35.3068 35.5464 35.0078ZM19.6632 2.7683L17.6374 8.68968H9.93795L7.91213 2.7683H19.6632ZM17.0905 10.9671L8.21143 19.5949L10.0469 10.9671H17.0905ZM7.35315 23.63C7.39967 23.5966 7.4449 23.5608 7.48698 23.5198L18.0212 13.2835L18.9295 17.5535L5.96612 30.1504L7.35315 23.63ZM24.8339 45.3084L13.7877 56.0443L11.1363 53.4675L23.9258 41.0398L24.8339 45.3084ZM21.8849 31.4454C21.8428 31.4765 21.8018 31.5095 21.7633 31.5468L11.3922 41.6245C10.9346 42.0692 10.9346 42.7902 11.3922 43.235C11.6211 43.4574 11.921 43.5685 12.2209 43.5685C12.5208 43.5685 12.8208 43.4574 13.0495 43.235L22.4497 34.1007L23.358 38.3706L9.47916 51.8569L2.74147 45.3084L2.8569 44.766L15.0225 32.9446C15.4801 32.4999 15.4801 31.7788 15.0225 31.3341C14.5649 30.8894 13.8228 30.8894 13.3651 31.3341L3.72057 40.7058L5.10362 34.2044C5.12084 34.1895 5.13842 34.1754 5.15494 34.1594L19.4974 20.2227L21.8849 31.4454Z" fill="#D9AF66"/>
<path d="M10.1724 44.4207C9.95448 44.2089 9.65214 44.087 9.34393 44.087C9.03573 44.087 8.73339 44.2089 8.51542 44.4207C8.29745 44.6325 8.17206 44.9263 8.17206 45.2258C8.17206 45.5252 8.29745 45.819 8.51542 46.0308C8.73339 46.2426 9.03573 46.3645 9.34393 46.3645C9.65214 46.3645 9.95448 46.2426 10.1724 46.0308C10.3904 45.819 10.5158 45.5252 10.5158 45.2258C10.5158 44.9263 10.3904 44.6325 10.1724 44.4207Z" fill="#D9AF66"/>
<path d="M18.1553 28.2906C17.9373 28.0776 17.635 27.9569 17.3268 27.9569C17.0174 27.9569 16.7162 28.0776 16.4983 28.2906C16.2791 28.5024 16.1549 28.7962 16.1549 29.0956C16.1549 29.3951 16.2791 29.6889 16.4983 29.9007C16.7162 30.1125 17.0174 30.2344 17.3268 30.2344C17.635 30.2344 17.9373 30.1125 18.1553 29.9007C18.3733 29.6889 18.4987 29.3951 18.4987 29.0956C18.4987 28.7962 18.3733 28.5024 18.1553 28.2906Z" fill="#D9AF66"/>
</svg>
